<svg width="26" height="24" viewBox="0 0 26 24" fill="none" xmlns="http://www.w3.org/2000/svg">
<g id="icon-li-green.svg" clip-path="url(#clip0_33_759)">
<path id="Vector" d="M21.162 8.13501C21.7015 8.14347 22.2373 8.04451 22.7382 7.8439C23.2391 7.64329 23.6951 7.34503 24.0796 6.96648C24.4642 6.58794 24.7695 6.13669 24.978 5.63899C25.1864 5.14129 25.2938 4.6071 25.2938 4.06751C25.2938 3.52793 25.1864 2.99373 24.978 2.49604C24.7695 1.99834 24.4642 1.54708 24.0796 1.16854C23.6951 0.789999 23.2391 0.491738 22.7382 0.291124C22.2373 0.0905101 21.7015 -0.00844796 21.162 1.17564e-05C20.0943 0.0167538 19.0759 0.452657 18.3268 1.21364C17.5777 1.97462 17.1578 2.99966 17.1578 4.06751C17.1578 5.13537 17.5777 6.1604 18.3268 6.92138C19.0759 7.68237 20.0943 8.11827 21.162 8.13501Z" fill="#372158"/>
<path id="Vector_2" d="M16.928 20.133C14.8364 20.1327 12.8074 19.4191 11.176 18.1101C9.54466 16.8011 8.40845 14.9749 7.955 12.933C7.80941 12.4696 7.73523 11.9868 7.735 11.501V6.00002C7.71868 4.98507 7.30403 4.0172 6.58051 3.30522C5.85699 2.59324 4.88259 2.19421 3.8675 2.19421C2.85241 2.19421 1.87801 2.59324 1.15449 3.30522C0.430967 4.0172 0.016321 4.98507 0 6.00002V11.308C0 18.348 5.734 24.137 12.773 23.997C15.0295 23.951 17.2316 23.2957 19.1461 22.1006C21.0607 20.9055 22.6165 19.215 23.649 17.208C22.7904 18.1316 21.7504 18.8681 20.5941 19.3712C19.4378 19.8743 18.19 20.1333 16.929 20.132L16.928 20.133Z" fill="#2BC4C3"/>
<path id="Vector_3" d="M25.034 11.345C25.034 11.0495 24.9166 10.7662 24.7077 10.5572C24.4988 10.3483 24.2155 10.231 23.92 10.231H18.397C18.1016 10.231 17.8182 10.3483 17.6093 10.5572C17.4004 10.7662 17.283 11.0495 17.283 11.345V11.501C17.2815 12.6409 16.8724 13.7428 16.1294 14.6074C15.3865 15.472 14.3588 16.0424 13.2321 16.2154C12.1053 16.3885 10.9538 16.1528 9.98565 15.551C9.01749 14.9492 8.29651 14.0209 7.953 12.934C8.31569 14.5688 9.11815 16.0734 10.2737 17.2853C11.4293 18.4972 12.894 19.3704 14.5097 19.8105C16.1254 20.2506 17.8306 20.2408 19.4411 19.7823C21.0517 19.3238 22.5064 18.434 23.648 17.209C24.5613 15.4382 25.0366 13.4743 25.034 11.482V11.345Z" fill="url(#paint0_linear_33_759)"/>
</g>
<defs>
<linearGradient id="paint0_linear_33_759" x1="10.708" y1="26.455" x2="17.424" y2="11.474" gradientUnits="userSpaceOnUse">
<stop offset="0.29" stop-color="#0C9898"/>
<stop offset="1" stop-color="#2BC4C3"/>
</linearGradient>
<clipPath id="clip0_33_759">
<rect width="26" height="24" fill="white"/>
</clipPath>
</defs>
</svg>
