<svg width="41" height="40" viewBox="0 0 41 40" fill="none" xmlns="http://www.w3.org/2000/svg">
<path opacity="0.5" d="M32.132 20.517H8.06497M32.302 11.068C25.852 17.428 14.347 17.428 7.89697 11.068M7.89697 30.6C14.347 24.24 25.852 24.24 32.302 30.6" stroke="#FFECBF" stroke-width="2" stroke-linecap="round" stroke-linejoin="round"/>
<path d="M20.097 8.48299V32.55M28.607 12.013C33.307 16.713 33.307 24.331 28.607 29.03C23.907 33.73 16.289 33.73 11.589 29.03C6.88996 24.331 6.88996 16.712 11.589 12.013C16.289 7.31299 23.908 7.31299 28.607 12.013ZM36.002 7.42199C36.2445 7.6597 36.4373 7.94341 36.5688 8.25653C36.7004 8.56964 36.7682 8.90586 36.7682 9.24549C36.7682 9.58512 36.7004 9.92134 36.5688 10.2345C36.4373 10.5476 36.2445 10.8313 36.002 11.069C35.5082 11.5534 34.8441 11.8247 34.1525 11.8247C33.4608 11.8247 32.7967 11.5534 32.303 11.069C32.0604 10.8313 31.8677 10.5476 31.7361 10.2345C31.6045 9.92134 31.5368 9.58512 31.5368 9.24549C31.5368 8.90586 31.6045 8.56964 31.7361 8.25653C31.8677 7.94341 32.0604 7.6597 32.303 7.42199C32.7967 6.93761 33.4608 6.66626 34.1525 6.66626C34.8441 6.66626 35.5082 6.93761 36.002 7.42199ZM7.89596 7.42199C8.13855 7.6597 8.33127 7.94341 8.46283 8.25653C8.5944 8.56964 8.66216 8.90586 8.66216 9.24549C8.66216 9.58512 8.5944 9.92134 8.46283 10.2345C8.33127 10.5476 8.13855 10.8313 7.89596 11.069C7.40226 11.5531 6.7384 11.8242 6.04696 11.8242C5.35553 11.8242 4.69167 11.5531 4.19796 11.069C3.95538 10.8313 3.76266 10.5476 3.63109 10.2345C3.49953 9.92134 3.43176 9.58512 3.43176 9.24549C3.43176 8.90586 3.49953 8.56964 3.63109 8.25653C3.76266 7.94341 3.95538 7.6597 4.19796 7.42199C4.69167 6.93791 5.35553 6.66675 6.04696 6.66675C6.7384 6.66675 7.40226 6.93791 7.89596 7.42199ZM7.89596 30.599C8.13839 30.8367 8.33098 31.1203 8.46246 31.4334C8.59393 31.7464 8.66165 32.0825 8.66165 32.422C8.66165 32.7615 8.59393 33.0976 8.46246 33.4106C8.33098 33.7237 8.13839 34.0073 7.89596 34.245C7.40226 34.7291 6.7384 35.0002 6.04696 35.0002C5.35553 35.0002 4.69167 34.7291 4.19796 34.245C3.95553 34.0073 3.76294 33.7237 3.63147 33.4106C3.49999 33.0976 3.43227 32.7615 3.43227 32.422C3.43227 32.0825 3.49999 31.7464 3.63147 31.4334C3.76294 31.1203 3.95553 30.8367 4.19796 30.599C4.69167 30.1149 5.35553 29.8438 6.04696 29.8438C6.7384 29.8438 7.40226 30.1149 7.89596 30.599ZM36.002 30.599C36.2444 30.8367 36.437 31.1203 36.5685 31.4334C36.6999 31.7464 36.7677 32.0825 36.7677 32.422C36.7677 32.7615 36.6999 33.0976 36.5685 33.4106C36.437 33.7237 36.2444 34.0073 36.002 34.245C35.5082 34.7294 34.8441 35.0007 34.1525 35.0007C33.4608 35.0007 32.7967 34.7294 32.303 34.245C32.0605 34.0073 31.8679 33.7237 31.7365 33.4106C31.605 33.0976 31.5373 32.7615 31.5373 32.422C31.5373 32.0825 31.605 31.7464 31.7365 31.4334C31.8679 31.1203 32.0605 30.8367 32.303 30.599C32.7967 30.1146 33.4608 29.8433 34.1525 29.8433C34.8441 29.8433 35.5082 30.1146 36.002 30.599Z" stroke="#FFECBF" stroke-width="2" stroke-linecap="round" stroke-linejoin="round"/>
</svg>
