<svg width="41" height="40" viewBox="0 0 41 40" fill="none" xmlns="http://www.w3.org/2000/svg">
<path opacity="0.5" d="M22.618 23.467L26.302 28.8M18.8169 23.467L15.1339 28.784M17.5359 19.833L11.7859 18.183M20.7169 17.4V11.816M23.9039 19.833L29.6539 18.183" stroke="#FFECBF" stroke-width="2" stroke-linecap="round" stroke-linejoin="round"/>
<path d="M15.586 29.168C15.8955 29.4775 16.141 29.845 16.3085 30.2494C16.476 30.6538 16.5623 31.0872 16.5623 31.525C16.5623 31.9627 16.476 32.3961 16.3085 32.8006C16.141 33.205 15.8955 33.5724 15.586 33.882C15.2764 34.1915 14.909 34.437 14.5046 34.6045C14.1001 34.772 13.6667 34.8583 13.229 34.8583C12.7912 34.8583 12.3578 34.772 11.9534 34.6045C11.5489 34.437 11.1815 34.1915 10.872 33.882C10.2468 33.2569 9.89566 32.409 9.89566 31.525C9.89566 30.6409 10.2468 29.7931 10.872 29.168C11.4971 28.5428 12.3449 28.1917 13.229 28.1917C14.113 28.1917 14.9608 28.5428 15.586 29.168ZM23.074 18.383C23.3863 18.6918 23.6346 19.0593 23.8044 19.4644C23.9743 19.8695 24.0624 20.3042 24.0636 20.7435C24.0649 21.1827 23.9793 21.6179 23.8119 22.024C23.6444 22.4301 23.3983 22.799 23.0877 23.1097C22.7771 23.4203 22.4082 23.6665 22.0022 23.8341C21.5961 24.0017 21.1609 24.0873 20.7217 24.0861C20.2824 24.085 19.8477 23.997 19.4426 23.8272C19.0374 23.6574 18.6699 23.4093 18.361 23.097C17.7416 22.4708 17.3953 21.6249 17.3977 20.7442C17.4 19.8634 17.7509 19.0195 18.3736 18.3966C18.9963 17.7738 19.8402 17.4227 20.721 17.4202C21.6017 17.4176 22.4476 17.7638 23.074 18.383ZM23.074 6.11797C23.3863 6.4268 23.6346 6.79433 23.8044 7.19943C23.9743 7.60453 24.0624 8.03921 24.0636 8.47847C24.0649 8.91774 23.9793 9.35292 23.8119 9.759C23.6444 10.1651 23.3983 10.534 23.0877 10.8447C22.7771 11.1553 22.4082 11.4015 22.0022 11.5691C21.5961 11.7367 21.1609 11.8223 20.7217 11.8211C20.2824 11.82 19.8477 11.732 19.4426 11.5622C19.0374 11.3924 18.6699 11.1443 18.361 10.832C17.7416 10.2058 17.3953 9.35991 17.3977 8.47918C17.4 7.59845 17.7509 6.75445 18.3736 6.13161C18.9963 5.50877 19.8402 5.15772 20.721 5.15517C21.6017 5.15261 22.4476 5.49875 23.074 6.11797ZM35.195 14.923C35.5073 15.2318 35.7556 15.5993 35.9254 16.0044C36.0953 16.4095 36.1834 16.8442 36.1846 17.2835C36.1859 17.7227 36.1003 18.1579 35.9329 18.564C35.7654 18.9701 35.5193 19.339 35.2087 19.6497C34.8981 19.9603 34.5292 20.2065 34.1232 20.3741C33.7171 20.5417 33.2819 20.6273 32.8427 20.6261C32.4034 20.625 31.9687 20.537 31.5636 20.3672C31.1584 20.1974 30.7909 19.9493 30.482 19.637C29.8626 19.0108 29.5163 18.1649 29.5187 17.2842C29.521 16.4034 29.8719 15.5595 30.4946 14.9366C31.1173 14.3138 31.9612 13.9627 32.842 13.9602C33.7227 13.9576 34.5686 14.3038 35.195 14.923ZM30.567 29.168C30.8765 29.4775 31.122 29.845 31.2895 30.2494C31.457 30.6538 31.5433 31.0872 31.5433 31.525C31.5433 31.9627 31.457 32.3961 31.2895 32.8006C31.122 33.205 30.8765 33.5724 30.567 33.882C30.2574 34.1915 29.89 34.437 29.4856 34.6045C29.0811 34.772 28.6477 34.8583 28.21 34.8583C27.7722 34.8583 27.3388 34.772 26.9344 34.6045C26.5299 34.437 26.1625 34.1915 25.853 33.882C25.2278 33.2569 24.8767 32.409 24.8767 31.525C24.8767 30.6409 25.2278 29.7931 25.853 29.168C26.4781 28.5428 27.3259 28.1917 28.21 28.1917C29.094 28.1917 29.9418 28.5428 30.567 29.168ZM10.957 14.923C11.2665 15.2325 11.512 15.6 11.6795 16.0044C11.847 16.4088 11.9333 16.8422 11.9333 17.28C11.9333 17.7177 11.847 18.1512 11.6795 18.5556C11.512 18.96 11.2665 19.3274 10.957 19.637C10.6474 19.9465 10.28 20.192 9.87556 20.3595C9.47115 20.5271 9.0377 20.6133 8.59996 20.6133C8.16223 20.6133 7.72878 20.5271 7.32436 20.3595C6.91995 20.192 6.55249 19.9465 6.24296 19.637C5.61785 19.0119 5.26666 18.164 5.26666 17.28C5.26666 16.3959 5.61785 15.5481 6.24296 14.923C6.86808 14.2979 7.71592 13.9467 8.59996 13.9467C9.48401 13.9467 10.3318 14.2979 10.957 14.923Z" stroke="#FFECBF" stroke-width="2" stroke-linecap="round" stroke-linejoin="round"/>
</svg>
