<svg width="21" height="20" viewBox="0 0 21 20" fill="none" xmlns="http://www.w3.org/2000/svg">
<g id="icon-login.svg">
<path id="Vector" d="M15.4655 4.69715C16.1741 5.39084 16.7382 6.21816 17.1249 7.13125C17.5117 8.04434 17.7136 9.02507 17.7189 10.0167C17.7242 11.0083 17.5328 11.9911 17.1557 12.9083C16.7787 13.8255 16.2235 14.6587 15.5223 15.3599C14.8211 16.0611 13.9878 16.6163 13.0707 16.9934C12.1535 17.3704 11.1707 17.5618 10.179 17.5565C9.18743 17.5513 8.2067 17.3494 7.2936 16.9626C6.38051 16.5758 5.55319 16.0118 4.85951 15.3032C3.47772 13.8916 2.70858 11.992 2.7191 10.0167C2.72962 8.04144 3.51896 6.15008 4.91569 4.75334C6.31243 3.3566 8.20379 2.56727 10.179 2.55675C12.1543 2.54623 14.054 3.31537 15.4655 4.69715Z" stroke="#371E56" stroke-width="1.5" stroke-linecap="round" stroke-linejoin="round"/>
<path id="Vector_2" d="M14.5855 16.0481C14.2655 14.5141 12.4175 13.3341 10.1635 13.3341C7.90848 13.3341 6.06048 14.5141 5.74048 16.0481M11.9305 6.56609C12.1692 6.79678 12.3596 7.07269 12.4905 7.37774C12.6214 7.68279 12.6903 8.01086 12.6931 8.3428C12.6959 8.67475 12.6325 9.00393 12.5068 9.31114C12.381 9.61834 12.1953 9.89742 11.9605 10.1321C11.7257 10.3668 11.4465 10.5523 11.1392 10.6779C10.8319 10.8035 10.5027 10.8667 10.1708 10.8637C9.83881 10.8607 9.51078 10.7917 9.20581 10.6606C8.90084 10.5295 8.62503 10.3389 8.39448 10.1001C7.9291 9.63049 7.66868 8.99565 7.67022 8.33451C7.67176 7.67336 7.93513 7.03975 8.4027 6.57232C8.87027 6.10488 9.50395 5.84169 10.1651 5.84034C10.8262 5.83898 11.461 6.10058 11.9305 6.56609Z" stroke="#371E56" stroke-width="1.5" stroke-linecap="round" stroke-linejoin="round"/>
</g>
</svg>
