<svg width="40" height="40" viewBox="0 0 40 40" fill="none" xmlns="http://www.w3.org/2000/svg">
<path opacity="0.5" d="M22.7 22.7001L17.3 17.3M26.684 22.7001L32.067 17.3M7.93399 22.7001L13.317 17.3" stroke="#FFECBF" stroke-width="2" stroke-linecap="round" stroke-linejoin="round"/>
<path d="M3.125 24.687C3.1248 24.1309 3.28953 23.5871 3.59835 23.1246C3.90717 22.6621 4.34622 22.3015 4.85997 22.0885C5.37372 21.8754 5.9391 21.8196 6.48461 21.9279C7.03013 22.0362 7.53127 22.3038 7.92468 22.6969C8.31808 23.0901 8.58608 23.591 8.69477 24.1364C8.80347 24.6819 8.74798 25.2473 8.53533 25.7612C8.32268 26.2751 7.96242 26.7144 7.50009 27.0236C7.03777 27.3327 6.49416 27.4978 5.938 27.498C5.57014 27.4997 5.20556 27.4289 4.86511 27.2895C4.52466 27.1502 4.21503 26.9451 3.95394 26.6859C3.69284 26.4268 3.48542 26.1187 3.34352 25.7793C3.20162 25.4399 3.12805 25.0759 3.127 24.708C3.125 24.702 3.125 24.695 3.125 24.687Z" stroke="#FFECBF" stroke-width="2" stroke-linecap="round" stroke-linejoin="round"/>
<path d="M5.148 22.002C5.05475 21.3386 5.00531 20.6699 5 20C5 11.715 11.715 5 20 5C25.625 5 30.522 8.102 33.088 12.683M6.914 27.316C9.481 31.898 14.377 35 20.002 35C28.287 35 35.002 28.285 35.002 20C35.002 19.32 34.941 18.655 34.854 17.998" stroke="#FFECBF" stroke-width="2" stroke-linecap="round" stroke-linejoin="round"/>
<path d="M18.125 15.313C18.1248 15.8692 17.9597 16.4127 17.6506 16.875C17.3415 17.3373 16.9023 17.6976 16.3884 17.9103C15.8746 18.123 15.3092 18.1785 14.7638 18.0699C14.2184 17.9613 13.7174 17.6934 13.3243 17.3001C12.9311 16.9068 12.6634 16.4057 12.555 15.8603C12.4465 15.3148 12.5023 14.7495 12.7152 14.2357C12.928 13.7219 13.2884 13.2828 13.7508 12.9739C14.2133 12.6649 14.7569 12.5 15.313 12.5C15.681 12.4982 16.0456 12.5689 16.3862 12.7082C16.7268 12.8475 17.0365 13.0526 17.2977 13.3118C17.5589 13.5709 17.7664 13.879 17.9084 14.2185C18.0503 14.558 18.124 14.9221 18.125 15.29V15.313ZM36.875 15.314C36.875 15.8702 36.7101 16.4138 36.4012 16.8762C36.0922 17.3386 35.6531 17.699 35.1393 17.9119C34.6256 18.1248 34.0602 18.1805 33.5148 18.0721C32.9693 17.9637 32.4683 17.6959 32.075 17.3028C31.6817 16.9096 31.4138 16.4087 31.3052 15.8632C31.1965 15.3178 31.2521 14.7525 31.4648 14.2386C31.6775 13.7248 32.0377 13.2855 32.5 12.9764C32.9623 12.6673 33.5059 12.5022 34.062 12.502C34.4319 12.5 34.7985 12.5714 35.1406 12.712C35.4827 12.8526 35.7936 13.0597 36.0552 13.3212C36.3168 13.5827 36.5239 13.8934 36.6646 14.2355C36.8054 14.5776 36.8769 14.9442 36.875 15.314ZM21.875 24.687C21.8748 24.1308 22.0396 23.5871 22.3484 23.1245C22.6573 22.6619 23.0964 22.3014 23.6102 22.0884C24.124 21.8754 24.6894 21.8196 25.235 21.9279C25.7805 22.0363 26.2817 22.3041 26.675 22.6973C27.0684 23.0905 27.3363 23.5916 27.4449 24.1371C27.5535 24.6826 27.4979 25.248 27.2851 25.7619C27.0722 26.2758 26.7118 26.715 26.2494 27.0241C25.7869 27.3331 25.2432 27.498 24.687 27.498C24.3191 27.4999 23.9544 27.4291 23.6138 27.2898C23.2732 27.1506 22.9635 26.9455 22.7023 26.6863C22.4411 26.4272 22.2336 26.119 22.0916 25.7796C21.9497 25.4401 21.8761 25.076 21.875 24.708V24.687Z" stroke="#FFECBF" stroke-width="2" stroke-linecap="round" stroke-linejoin="round"/>
</svg>
