<svg width="40" height="40" viewBox="0 0 40 40" fill="none" xmlns="http://www.w3.org/2000/svg">
<path d="M15 11.1169H25" stroke="#FFECBF" stroke-width="2" stroke-linecap="round" stroke-linejoin="round"/>
<path opacity="0.5" d="M11.668 17.7841H28.335" stroke="#FFECBF" stroke-width="2" stroke-linecap="round" stroke-linejoin="round"/>
<path d="M10.833 33.125H8.333C7.89527 33.1251 7.4618 33.039 7.05736 32.8716C6.65292 32.7041 6.28544 32.4586 5.97592 32.1491C5.6664 31.8395 5.42089 31.4721 5.25344 31.0676C5.08599 30.6632 4.99987 30.2297 5 29.792V7.49999C4.99987 7.06226 5.08599 6.62879 5.25344 6.22435C5.42089 5.81992 5.6664 5.45244 5.97592 5.14291C6.28544 4.83339 6.65292 4.58789 7.05736 4.42043C7.4618 4.25298 7.89527 4.16686 8.333 4.16699H31.667C32.1047 4.16686 32.5382 4.25298 32.9426 4.42043C33.3471 4.58789 33.7146 4.83339 34.0241 5.14291C34.3336 5.45244 34.5791 5.81992 34.7466 6.22435C34.914 6.62879 35.0001 7.06226 35 7.49999V29.792C35.0001 30.2297 34.914 30.6632 34.7466 31.0676C34.5791 31.4721 34.3336 31.8395 34.0241 32.1491C33.7146 32.4586 33.3471 32.7041 32.9426 32.8716C32.5382 33.039 32.1047 33.1251 31.667 33.125H29.167" stroke="#FFECBF" stroke-width="2" stroke-linecap="round" stroke-linejoin="round"/>
<path d="M23.242 25.3C23.6676 25.7256 24.0052 26.2309 24.2356 26.787C24.4659 27.3431 24.5845 27.9391 24.5845 28.541C24.5845 29.1429 24.4659 29.7389 24.2356 30.295C24.0052 30.8511 23.6676 31.3564 23.242 31.782C22.8164 32.2076 22.3111 32.5452 21.755 32.7756C21.1989 33.0059 20.6029 33.1245 20.001 33.1245C19.3991 33.1245 18.8031 33.0059 18.247 32.7756C17.6909 32.5452 17.1856 32.2076 16.76 31.782C15.9004 30.9224 15.4175 29.7566 15.4175 28.541C15.4175 27.3254 15.9004 26.1596 16.76 25.3C17.6196 24.4404 18.7854 23.9575 20.001 23.9575C21.2166 23.9575 22.3824 24.4404 23.242 25.3Z" stroke="#FFECBF" stroke-width="2" stroke-linecap="round" stroke-linejoin="round"/>
<path d="M24.582 28.542L29.165 33.125L24.79 37.5L20.398 33.109M19.599 33.109L15.207 37.5L10.832 33.125L15.415 28.542" stroke="#FFECBF" stroke-width="2" stroke-linecap="round" stroke-linejoin="round"/>
</svg>
